<mxfile host="app.diagrams.net" agent="Mozilla/5.0 (Windows NT 10.0; Win64; x64) AppleWebKit/537.36 (KHTML, like Gecko) Chrome/127.0.0.0 Safari/537.36" version="24.7.6">
  <diagram name="Page-1" id="dd472eb7-4b8b-5cd9-a60b-b15522922e76">
    <mxGraphModel dx="1420" dy="724" grid="1" gridSize="10" guides="1" tooltips="1" connect="1" arrows="1" fold="1" page="1" pageScale="1" pageWidth="1100" pageHeight="850" background="none" math="0" shadow="0">
      <root>
        <mxCell id="0" />
        <mxCell id="1" parent="0" />
        <mxCell id="374e34682ed331ee-1" value="Location" style="ellipse;whiteSpace=wrap;html=1;rounded=0;shadow=0;dashed=0;comic=0;fontFamily=Verdana;fontSize=22;fontColor=#0069D1;fillColor=#f5f5f5;strokeColor=#666666;" parent="1" vertex="1">
          <mxGeometry x="330" y="190" width="400" height="400" as="geometry" />
        </mxCell>
        <mxCell id="45236fa5f4b8e91a-1" value="Facility" style="ellipse;whiteSpace=wrap;html=1;rounded=0;shadow=0;dashed=0;comic=0;fontFamily=Verdana;fontSize=22;fontColor=#0069D1;fillColor=#66FFFF;strokeColor=#666666;" parent="1" vertex="1">
          <mxGeometry x="450" y="40" width="160" height="160" as="geometry" />
        </mxCell>
        <mxCell id="45236fa5f4b8e91a-2" value="Administrative&amp;nbsp;&lt;div&gt;(行政区划)&lt;/div&gt;" style="ellipse;whiteSpace=wrap;html=1;rounded=0;shadow=0;dashed=0;comic=0;fontFamily=Verdana;fontSize=22;fontColor=#0069D1;fillColor=#66FFFF;strokeColor=#666666;" parent="1" vertex="1">
          <mxGeometry x="450" y="560" width="160" height="160" as="geometry" />
        </mxCell>
        <mxCell id="45236fa5f4b8e91a-3" value="Property" style="ellipse;whiteSpace=wrap;html=1;rounded=0;shadow=0;dashed=0;comic=0;fontFamily=Verdana;fontSize=22;fontColor=#0069D1;fillColor=#66FFFF;strokeColor=#666666;" parent="1" vertex="1">
          <mxGeometry x="710" y="300" width="160" height="160" as="geometry" />
        </mxCell>
        <mxCell id="45236fa5f4b8e91a-4" value="FMS-pages" style="ellipse;whiteSpace=wrap;html=1;rounded=0;shadow=0;dashed=0;comic=0;fontFamily=Verdana;fontSize=22;fontColor=#0069D1;fillColor=#B3FF66;strokeColor=#666666;" parent="1" vertex="1">
          <mxGeometry x="290" y="470" width="160" height="160" as="geometry" />
        </mxCell>
        <mxCell id="45236fa5f4b8e91a-5" value="Address" style="ellipse;whiteSpace=wrap;html=1;rounded=0;shadow=0;dashed=0;comic=0;fontFamily=Verdana;fontSize=22;fontColor=#0069D1;fillColor=#f5f5f5;strokeColor=#666666;" parent="1" vertex="1">
          <mxGeometry x="280" y="130" width="160" height="160" as="geometry" />
        </mxCell>
        <mxCell id="45236fa5f4b8e91a-6" value="Terminal" style="ellipse;whiteSpace=wrap;html=1;rounded=0;shadow=0;dashed=0;comic=0;fontFamily=Verdana;fontSize=22;fontColor=#0069D1;fillColor=#66FFFF;strokeColor=#666666;" parent="1" vertex="1">
          <mxGeometry x="620" y="130" width="160" height="160" as="geometry" />
        </mxCell>
        <mxCell id="45236fa5f4b8e91a-7" value="Country" style="ellipse;whiteSpace=wrap;html=1;rounded=0;shadow=0;dashed=0;comic=0;fontFamily=Verdana;fontSize=22;fontColor=#0069D1;fillColor=#66FFFF;strokeColor=#666666;" parent="1" vertex="1">
          <mxGeometry x="620" y="470" width="160" height="160" as="geometry" />
        </mxCell>
        <mxCell id="45236fa5f4b8e91a-8" value="Location" style="ellipse;whiteSpace=wrap;html=1;rounded=0;shadow=0;dashed=0;comic=0;fontFamily=Verdana;fontSize=22;fontColor=#0069D1;fillColor=#f5f5f5;strokeColor=#666666;" parent="1" vertex="1">
          <mxGeometry x="210" y="310" width="160" height="160" as="geometry" />
        </mxCell>
        <mxCell id="PrTDnXz9bhQl9K0X3mTd-1" value="Message Center" style="ellipse;whiteSpace=wrap;html=1;rounded=0;shadow=0;dashed=0;comic=0;fontFamily=Verdana;fontSize=22;fontColor=#0069D1;fillColor=#f5f5f5;strokeColor=#666666;" vertex="1" parent="1">
          <mxGeometry x="360" y="980" width="400" height="400" as="geometry" />
        </mxCell>
        <mxCell id="PrTDnXz9bhQl9K0X3mTd-2" value="Email receive" style="ellipse;whiteSpace=wrap;html=1;rounded=0;shadow=0;dashed=0;comic=0;fontFamily=Verdana;fontSize=22;fontColor=#0069D1;fillColor=#66FFFF;strokeColor=#666666;" vertex="1" parent="1">
          <mxGeometry x="480" y="830" width="160" height="160" as="geometry" />
        </mxCell>
        <mxCell id="PrTDnXz9bhQl9K0X3mTd-3" value="JOB" style="ellipse;whiteSpace=wrap;html=1;rounded=0;shadow=0;dashed=0;comic=0;fontFamily=Verdana;fontSize=22;fontColor=#0069D1;fillColor=#66FFFF;strokeColor=#666666;" vertex="1" parent="1">
          <mxGeometry x="480" y="1350" width="160" height="160" as="geometry" />
        </mxCell>
        <mxCell id="PrTDnXz9bhQl9K0X3mTd-4" value="FireBase" style="ellipse;whiteSpace=wrap;html=1;rounded=0;shadow=0;dashed=0;comic=0;fontFamily=Verdana;fontSize=22;fontColor=#0069D1;fillColor=#66FFFF;strokeColor=#666666;" vertex="1" parent="1">
          <mxGeometry x="740" y="1090" width="160" height="160" as="geometry" />
        </mxCell>
        <mxCell id="PrTDnXz9bhQl9K0X3mTd-5" value="" style="ellipse;whiteSpace=wrap;html=1;rounded=0;shadow=0;dashed=0;comic=0;fontFamily=Verdana;fontSize=22;fontColor=#0069D1;fillColor=#B3FF66;strokeColor=#666666;" vertex="1" parent="1">
          <mxGeometry x="320" y="1260" width="160" height="160" as="geometry" />
        </mxCell>
        <mxCell id="PrTDnXz9bhQl9K0X3mTd-6" value="" style="ellipse;whiteSpace=wrap;html=1;rounded=0;shadow=0;dashed=0;comic=0;fontFamily=Verdana;fontSize=22;fontColor=#0069D1;fillColor=#f5f5f5;strokeColor=#666666;" vertex="1" parent="1">
          <mxGeometry x="310" y="920" width="160" height="160" as="geometry" />
        </mxCell>
        <mxCell id="PrTDnXz9bhQl9K0X3mTd-7" value="Email Send" style="ellipse;whiteSpace=wrap;html=1;rounded=0;shadow=0;dashed=0;comic=0;fontFamily=Verdana;fontSize=22;fontColor=#0069D1;fillColor=#66FFFF;strokeColor=#666666;" vertex="1" parent="1">
          <mxGeometry x="650" y="920" width="160" height="160" as="geometry" />
        </mxCell>
        <mxCell id="PrTDnXz9bhQl9K0X3mTd-8" value="Template" style="ellipse;whiteSpace=wrap;html=1;rounded=0;shadow=0;dashed=0;comic=0;fontFamily=Verdana;fontSize=22;fontColor=#0069D1;fillColor=#66FFFF;strokeColor=#666666;" vertex="1" parent="1">
          <mxGeometry x="650" y="1260" width="160" height="160" as="geometry" />
        </mxCell>
        <mxCell id="PrTDnXz9bhQl9K0X3mTd-9" value="" style="ellipse;whiteSpace=wrap;html=1;rounded=0;shadow=0;dashed=0;comic=0;fontFamily=Verdana;fontSize=22;fontColor=#0069D1;fillColor=#f5f5f5;strokeColor=#666666;" vertex="1" parent="1">
          <mxGeometry x="240" y="1100" width="160" height="160" as="geometry" />
        </mxCell>
        <mxCell id="PrTDnXz9bhQl9K0X3mTd-10" value="File" style="ellipse;whiteSpace=wrap;html=1;rounded=0;shadow=0;dashed=0;comic=0;fontFamily=Verdana;fontSize=22;fontColor=#0069D1;fillColor=#f5f5f5;strokeColor=#666666;" vertex="1" parent="1">
          <mxGeometry x="330" y="2090" width="400" height="400" as="geometry" />
        </mxCell>
        <mxCell id="PrTDnXz9bhQl9K0X3mTd-11" value="Upload" style="ellipse;whiteSpace=wrap;html=1;rounded=0;shadow=0;dashed=0;comic=0;fontFamily=Verdana;fontSize=22;fontColor=#0069D1;fillColor=#66FFFF;strokeColor=#666666;" vertex="1" parent="1">
          <mxGeometry x="450" y="1940" width="160" height="160" as="geometry" />
        </mxCell>
        <mxCell id="PrTDnXz9bhQl9K0X3mTd-12" value="" style="ellipse;whiteSpace=wrap;html=1;rounded=0;shadow=0;dashed=0;comic=0;fontFamily=Verdana;fontSize=22;fontColor=#0069D1;fillColor=#66FFFF;strokeColor=#666666;" vertex="1" parent="1">
          <mxGeometry x="450" y="2460" width="160" height="160" as="geometry" />
        </mxCell>
        <mxCell id="PrTDnXz9bhQl9K0X3mTd-13" value="PDF-&amp;gt;Img" style="ellipse;whiteSpace=wrap;html=1;rounded=0;shadow=0;dashed=0;comic=0;fontFamily=Verdana;fontSize=22;fontColor=#0069D1;fillColor=#66FFFF;strokeColor=#666666;" vertex="1" parent="1">
          <mxGeometry x="710" y="2200" width="160" height="160" as="geometry" />
        </mxCell>
        <mxCell id="PrTDnXz9bhQl9K0X3mTd-14" value="" style="ellipse;whiteSpace=wrap;html=1;rounded=0;shadow=0;dashed=0;comic=0;fontFamily=Verdana;fontSize=22;fontColor=#0069D1;fillColor=#B3FF66;strokeColor=#666666;" vertex="1" parent="1">
          <mxGeometry x="290" y="2370" width="160" height="160" as="geometry" />
        </mxCell>
        <mxCell id="PrTDnXz9bhQl9K0X3mTd-15" value="" style="ellipse;whiteSpace=wrap;html=1;rounded=0;shadow=0;dashed=0;comic=0;fontFamily=Verdana;fontSize=22;fontColor=#0069D1;fillColor=#f5f5f5;strokeColor=#666666;" vertex="1" parent="1">
          <mxGeometry x="280" y="2030" width="160" height="160" as="geometry" />
        </mxCell>
        <mxCell id="PrTDnXz9bhQl9K0X3mTd-16" value="Dowbload" style="ellipse;whiteSpace=wrap;html=1;rounded=0;shadow=0;dashed=0;comic=0;fontFamily=Verdana;fontSize=22;fontColor=#0069D1;fillColor=#66FFFF;strokeColor=#666666;" vertex="1" parent="1">
          <mxGeometry x="620" y="2030" width="160" height="160" as="geometry" />
        </mxCell>
        <mxCell id="PrTDnXz9bhQl9K0X3mTd-17" value="Thumbnail" style="ellipse;whiteSpace=wrap;html=1;rounded=0;shadow=0;dashed=0;comic=0;fontFamily=Verdana;fontSize=22;fontColor=#0069D1;fillColor=#66FFFF;strokeColor=#666666;" vertex="1" parent="1">
          <mxGeometry x="620" y="2370" width="160" height="160" as="geometry" />
        </mxCell>
        <mxCell id="PrTDnXz9bhQl9K0X3mTd-18" value="" style="ellipse;whiteSpace=wrap;html=1;rounded=0;shadow=0;dashed=0;comic=0;fontFamily=Verdana;fontSize=22;fontColor=#0069D1;fillColor=#f5f5f5;strokeColor=#666666;" vertex="1" parent="1">
          <mxGeometry x="210" y="2210" width="160" height="160" as="geometry" />
        </mxCell>
        <mxCell id="PrTDnXz9bhQl9K0X3mTd-19" value="Bucket" style="text;html=1;align=center;verticalAlign=middle;whiteSpace=wrap;rounded=0;fontStyle=1;fontSize=20;" vertex="1" parent="1">
          <mxGeometry x="450" y="2125" width="60" height="30" as="geometry" />
        </mxCell>
      </root>
    </mxGraphModel>
  </diagram>
</mxfile>
